HIERARCHY
ROOT Hips
{
  OFFSET 0.154708 93.6284 0.425337
  CHANNELS 6 Xposition Yposition Zposition Zrotation Xrotation Yrotation
  JOINT Spine
  {
    OFFSET 0 9.9235 -1.2273
    CHANNELS 6 Xposition Yposition Zposition Zrotation Xrotation Yrotation
    JOINT Spine1
    {
      OFFSET -0.0001 11.6454 -1.4223
      CHANNELS 6 Xposition Yposition Zposition Zrotation Xrotation Yrotation
      JOINT Spine2
      {
        OFFSET 0.0001 13.3602 -1.6265
        CHANNELS 6 Xposition Yposition Zposition Zrotation Xrotation Yrotation
        JOINT Neck
        {
          OFFSET 0 15.0325 0.7929
          CHANNELS 6 Xposition Yposition Zposition Zrotation Xrotation Yrotation
          JOINT Head
          {
            OFFSET 0 10.3218 3.1424
            CHANNELS 6 Xposition Yposition Zposition Zrotation Xrotation Yrotation
            JOINT HeadTop_End
            {
              OFFSET 0.0002 18.4747 6.6364
              CHANNELS 6 Xposition Yposition Zposition Zrotation Xrotation Yrotation
              End Site
              {
                OFFSET 0 0 0
              }
            }
            JOINT LeftEye
            {
              OFFSET 2.9479 7.6817 9.1207
              CHANNELS 6 Xposition Yposition Zposition Zrotation Xrotation Yrotation
              End Site
              {
                OFFSET 0 0 0
              }
            }
            JOINT RightEye
            {
              OFFSET -2.9445 7.6817 9.1205
              CHANNELS 6 Xposition Yposition Zposition Zrotation Xrotation Yrotation
              End Site
              {
                OFFSET 0 0 0
              }
            }
          }
        }
        JOINT LeftShoulder
        {
          OFFSET 6.1058 9.1104 0.7056
          CHANNELS 6 Xposition Yposition Zposition Zrotation Xrotation Yrotation
          JOINT LeftArm
          {
            OFFSET 12.655 -0.2659 -2.6009
            CHANNELS 6 Xposition Yposition Zposition Zrotation Xrotation Yrotation
            JOINT LeftForeArm
            {
              OFFSET 27.4047 0 0
              CHANNELS 6 Xposition Yposition Zposition Zrotation Xrotation Yrotation
              JOINT LeftHand
              {
                OFFSET 27.6145 0 0
                CHANNELS 6 Xposition Yposition Zposition Zrotation Xrotation Yrotation
                JOINT LeftHandMiddle1
                {
                  OFFSET 12.7755 0 0
                  CHANNELS 6 Xposition Yposition Zposition Zrotation Xrotation Yrotation
                  JOINT LeftHandMiddle2
                  {
                    OFFSET 3.614 0 0
                    CHANNELS 6 Xposition Yposition Zposition Zrotation Xrotation Yrotation
                    JOINT LeftHandMiddle3
                    {
                      OFFSET 3.4598 0 0
                      CHANNELS 6 Xposition Yposition Zposition Zrotation Xrotation Yrotation
                      End Site
                      {
                        OFFSET 3.6802 0 0
                      }
                    }
                  }
                }
                JOINT LeftHandThumb1
                {
                  OFFSET 3.7888 -2.167 3.0031
                  CHANNELS 6 Xposition Yposition Zposition Zrotation Xrotation Yrotation
                  JOINT LeftHandThumb2
                  {
                    OFFSET 3.6754 -2.122 2.122
                    CHANNELS 6 Xposition Yposition Zposition Zrotation Xrotation Yrotation
                    JOINT LeftHandThumb3
                    {
                      OFFSET 3.3944 -1.9597 1.9598
                      CHANNELS 6 Xposition Yposition Zposition Zrotation Xrotation Yrotation
                      End Site
                      {
                        OFFSET 2.6794 -1.5469 1.5469
                      }
                    }
                  }
                }
                JOINT LeftHandIndex1
                {
                  OFFSET 12.2666 -0.2317 2.8221
                  CHANNELS 6 Xposition Yposition Zposition Zrotation Xrotation Yrotation
                  JOINT LeftHandIndex2
                  {
                    OFFSET 3.892 0 0
                    CHANNELS 6 Xposition Yposition Zposition Zrotation Xrotation Yrotation
                    JOINT LeftHandIndex3
                    {
                      OFFSET 3.4152 0 0
                      CHANNELS 6 Xposition Yposition Zposition Zrotation Xrotation Yrotation
                      End Site
                      {
                        OFFSET 3.078 0 0
                      }
                    }
                  }
                }
                JOINT LeftHandRing1
                {
                  OFFSET 12.147 0.0099 -2.2166
                  CHANNELS 6 Xposition Yposition Zposition Zrotation Xrotation Yrotation
                  JOINT LeftHandRing2
                  {
                    OFFSET 3.6012 0 0
                    CHANNELS 6 Xposition Yposition Zposition Zrotation Xrotation Yrotation
                    JOINT LeftHandRing3
                    {
                      OFFSET 3.3073 0 0
                      CHANNELS 6 Xposition Yposition Zposition Zrotation Xrotation Yrotation
                      End Site
                      {
                        OFFSET 3.6601 0 0
                      }
                    }
                  }
                }
                JOINT LeftHandPinky1
                {
                  OFFSET 10.9082 -0.2264 -4.7258
                  CHANNELS 6 Xposition Yposition Zposition Zrotation Xrotation Yrotation
                  JOINT LeftHandPinky2
                  {
                    OFFSET 4.1367 0 0
                    CHANNELS 6 Xposition Yposition Zposition Zrotation Xrotation Yrotation
                    JOINT LeftHandPinky3
                    {
                      OFFSET 2.5948 0 0
                      CHANNELS 6 Xposition Yposition Zposition Zrotation Xrotation Yrotation
                      End Site
                      {
                        OFFSET 2.9239 0 0
                      }
                    }
                  }
                }
              }
            }
          }
        }
        JOINT RightShoulder
        {
          OFFSET -6.1057 9.1105 0.7056
          CHANNELS 6 Xposition Yposition Zposition Zrotation Xrotation Yrotation
          JOINT RightArm
          {
            OFFSET -12.655 -0.266 -2.6009
            CHANNELS 6 Xposition Yposition Zposition Zrotation Xrotation Yrotation
            JOINT RightForeArm
            {
              OFFSET -27.4047 0 0
              CHANNELS 6 Xposition Yposition Zposition Zrotation Xrotation Yrotation
              JOINT RightHand
              {
                OFFSET -27.6145 0 0
                CHANNELS 6 Xposition Yposition Zposition Zrotation Xrotation Yrotation
                JOINT RightHandMiddle1
                {
                  OFFSET -12.7755 0 0
                  CHANNELS 6 Xposition Yposition Zposition Zrotation Xrotation Yrotation
                  JOINT RightHandMiddle2
                  {
                    OFFSET -3.614 0 0
                    CHANNELS 6 Xposition Yposition Zposition Zrotation Xrotation Yrotation
                    JOINT RightHandMiddle3
                    {
                      OFFSET -3.4598 0 0
                      CHANNELS 6 Xposition Yposition Zposition Zrotation Xrotation Yrotation
                      End Site
                      {
                        OFFSET -3.6802 0 0
                      }
                    }
                  }
                }
                JOINT RightHandThumb1
                {
                  OFFSET -3.7888 -2.167 3.0031
                  CHANNELS 6 Xposition Yposition Zposition Zrotation Xrotation Yrotation
                  JOINT RightHandThumb2
                  {
                    OFFSET -3.6754 -2.122 2.122
                    CHANNELS 6 Xposition Yposition Zposition Zrotation Xrotation Yrotation
                    JOINT RightHandThumb3
                    {
                      OFFSET -3.3944 -1.9597 1.9598
                      CHANNELS 6 Xposition Yposition Zposition Zrotation Xrotation Yrotation
                      End Site
                      {
                        OFFSET -2.6794 -1.5469 1.5469
                      }
                    }
                  }
                }
                JOINT RightHandIndex1
                {
                  OFFSET -12.2666 -0.2317 2.8221
                  CHANNELS 6 Xposition Yposition Zposition Zrotation Xrotation Yrotation
                  JOINT RightHandIndex2
                  {
                    OFFSET -3.892 0 0
                    CHANNELS 6 Xposition Yposition Zposition Zrotation Xrotation Yrotation
                    JOINT RightHandIndex3
                    {
                      OFFSET -3.4152 0 0
                      CHANNELS 6 Xposition Yposition Zposition Zrotation Xrotation Yrotation
                      End Site
                      {
                        OFFSET -3.078 0 0
                      }
                    }
                  }
                }
                JOINT RightHandRing1
                {
                  OFFSET -12.147 0.0099 -2.2166
                  CHANNELS 6 Xposition Yposition Zposition Zrotation Xrotation Yrotation
                  JOINT RightHandRing2
                  {
                    OFFSET -3.6012 0 0
                    CHANNELS 6 Xposition Yposition Zposition Zrotation Xrotation Yrotation
                    JOINT RightHandRing3
                    {
                      OFFSET -3.3073 0 0
                      CHANNELS 6 Xposition Yposition Zposition Zrotation Xrotation Yrotation
                      End Site
                      {
                        OFFSET -3.6601 0 0
                      }
                    }
                  }
                }
                JOINT RightHandPinky1
                {
                  OFFSET -10.9082 -0.2264 -4.7258
                  CHANNELS 6 Xposition Yposition Zposition Zrotation Xrotation Yrotation
                  JOINT RightHandPinky2
                  {
                    OFFSET -4.1367 0 0
                    CHANNELS 6 Xposition Yposition Zposition Zrotation Xrotation Yrotation
                    JOINT RightHandPinky3
                    {
                      OFFSET -2.5948 0 0
                      CHANNELS 6 Xposition Yposition Zposition Zrotation Xrotation Yrotation
                      End Site
                      {
                        OFFSET -2.9239 0 0
                      }
                    }
                  }
                }
              }
            }
          }
        }
      }
    }
  }
  JOINT RightUpLeg
  {
    OFFSET -9.1245 -6.6564 -0.0554
    CHANNELS 6 Xposition Yposition Zposition Zrotation Xrotation Yrotation
    JOINT RightLeg
    {
      OFFSET -0.2447 -40.5954 -0.5145
      CHANNELS 6 Xposition Yposition Zposition Zrotation Xrotation Yrotation
      JOINT RightFoot
      {
        OFFSET 0.2447 -42.0479 -2.0602
        CHANNELS 6 Xposition Yposition Zposition Zrotation Xrotation Yrotation
        JOINT RightToeBase
        {
          OFFSET -0.3734 -10.4922 12.6407
          CHANNELS 6 Xposition Yposition Zposition Zrotation Xrotation Yrotation
          End Site
          {
            OFFSET 0 0 9.9925
          }
        }
      }
    }
  }
  JOINT LeftUpLeg
  {
    OFFSET 9.1245 -6.6564 -0.0554
    CHANNELS 6 Xposition Yposition Zposition Zrotation Xrotation Yrotation
    JOINT LeftLeg
    {
      OFFSET 0.2447 -40.5954 -0.517
      CHANNELS 6 Xposition Yposition Zposition Zrotation Xrotation Yrotation
      JOINT LeftFoot
      {
        OFFSET -0.2447 -42.048 -2.0576
        CHANNELS 6 Xposition Yposition Zposition Zrotation Xrotation Yrotation
        JOINT LeftToeBase
        {
          OFFSET 0.3734 -10.4922 12.6407
          CHANNELS 6 Xposition Yposition Zposition Zrotation Xrotation Yrotation
          End Site
          {
            OFFSET 0 0 9.9925
          }
        }
      }
    }
  }
}
MOTION
Frames:	4
Frame Time:	0.0333333
8.31202 92.7892 0.364574 -1.86186 7.09648 -2.35956 -8.88178e-016 9.9235 -1.2273 4.59316 14.6793 2.87614 -0.0001 11.6454 -1.4223 -0.22241 10.2869 1.87699 0.0001 13.3602 -1.6265 -0.294059 10.3182 1.66024 -3.55271e-015 15.0325 0.7929 -1.48613 1.40917 -0.698729 -1.77636e-015 10.3218 3.1424 6.46675 -19.9139 -3.84788 0.0002 18.4747 6.6364 -1.98785e-015 3.18055e-015 -7.95139e-016 2.9479 7.6817 9.1207 -1.98785e-015 3.18055e-015 -7.95139e-016 -2.9445 7.6817 9.1205 -1.98785e-015 3.18055e-015 -7.95139e-016 6.1058 9.1104 0.7056 -17.71 4.79724 -8.44181 12.655 -0.2659 -2.6009 -58.3603 -10.4498 -17.8759 27.4047 0 7.10543e-015 -3.58274e-006 1.62183e-006 -33.134 27.6145 -7.10543e-015 0 -0.705269 0.0603883 2.90355 12.7755 -7.10543e-015 8.88178e-016 -40.5142 -2.89915 5.65702 3.614 3.55271e-015 -8.88178e-016 -94.3579 -6.32453 5.86174 3.4598 0 0 -49.4653 -2.05741 4.46464 3.7888 -2.167 3.0031 4.62115 -6.47489 -5.6252 3.6754 -2.122 2.122 2.2045 8.61781 24.574 3.3944 -1.9597 1.9598 17.472 4.20363 25.9879 12.2666 -0.2317 2.8221 -52.561 -4.14779 6.15666 3.892 -3.55271e-015 0 -94.2291 -6.31139 5.86273 3.4152 0 8.88178e-016 -58.7261 -2.82683 5.0222 12.147 0.0099 -2.2166 -48.6654 -3.73295 6.02399 3.6012 4.88498e-015 1.77636e-015 -93.2283 -6.20918 5.86943 3.3073 1.42109e-014 0 -64.9727 -3.39215 5.32513 10.9082 -0.2264 -4.7258 -55.4819 -4.46412 6.23745 4.1367 -5.32907e-015 0 -78.7831 -4.73621 5.76611 2.5948 1.42109e-014 0 -64.3466 -3.33404 5.29757 -6.1057 9.1105 0.7056 8.22913 7.0915 17.4092 -12.655 -0.266 -2.6009 58.9531 -5.80805 20.2276 -27.4047 0 0 3.75483e-006 -7.21704e-006 29.4576 -27.6145 0 0 2.67353 0.702986 10.0555 -12.7755 3.55271e-015 0 40.1372 -2.53754 -4.7875 -3.614 -7.10543e-015 0 73.8042 -3.36763 -4.48392 -3.4598 7.10543e-015 0 77.2437 -3.63905 -4.55413 -3.7888 -2.167 3.0031 -4.77961 -7.19385 -4.49763 -3.6754 -2.122 2.122 -2.78923 9.41523 -27.6568 -3.3944 -1.9597 1.9598 -16.4739 1.59056 -18.8181 -12.2666 -0.2317 2.8221 28.6676 -0.600401 -2.13612 -3.892 3.55271e-015 0 74.5516 -3.42626 -4.50057 -3.4152 7.10543e-015 0 67.1471 -2.85637 -4.30237 -12.147 0.0099 -2.2166 48.5091 -3.25528 -7.08902 -3.6012 0 0 73.086 -3.31151 -4.46722 -3.3073 7.10543e-015 -1.77636e-015 76.4834 -3.5787 -4.54002 -10.9082 -0.2264 -4.7258 55.5278 -5.58759 -6.65914 -4.1367 -7.10543e-015 1.77636e-015 72.2852 -3.24917 -4.44774 -2.5948 0 1.77636e-015 75.7262 -3.51879 -4.52516 -9.1245 -6.6564 -0.0554 -1.5634 -34.2764 -4.89183 -0.2447 -40.5954 -0.5145 -1.32427 44.3872 -9.63183 0.2447 -42.0479 -2.0602 5.6444 -17.7241 1.11579 -0.3734 -10.4922 12.6407 -0.00338586 4.434 0.000419923 9.1245 -6.6564 -0.0554 19.0425 -39.6941 23.1774 0.2447 -40.5954 -0.517 -3.35762 59.4257 14.3808 -0.2447 -42.048 -2.0576 -3.77331 -0.0186842 4.07602 0.3734 -10.4922 12.6407 2.02501e-006 -42.9557 1.08452e-005 
8.36681 92.8854 0.26652 -1.89104 7.11932 -2.41112 -8.88178e-016 9.9235 -1.2273 4.69955 14.9844 2.88905 -0.0001 11.6454 -1.4223 -0.220065 10.4457 1.92873 0.0001 13.3602 -1.6265 -0.29836 10.4786 1.69862 0 15.0325 0.7929 -1.47375 1.33174 -0.707327 3.55271e-015 10.3218 3.1424 6.46396 -19.8859 -3.83503 0.0002 18.4747 6.6364 1.59028e-015 -6.36111e-015 -0 2.9479 7.6817 9.1207 1.59028e-015 -6.36111e-015 -0 -2.9445 7.6817 9.1205 1.59028e-015 -6.36111e-015 -0 6.1058 9.1104 0.7056 -17.9272 4.80454 -8.52206 12.655 -0.2659 -2.6009 -58.0921 -10.6357 -18.7316 27.4047 0 7.10543e-015 1.58465e-005 -2.49474e-006 -33.5723 27.6145 0 1.77636e-015 -0.949801 0.118564 3.57322 12.7755 7.10543e-015 8.88178e-016 -40.5955 -2.90719 5.66126 3.614 -3.55271e-015 -8.88178e-016 -94.5612 -6.34527 5.86011 3.4598 1.42109e-014 0 -49.5941 -2.06746 4.47322 3.7888 -2.167 3.0031 4.62115 -6.47489 -5.6252 3.6754 -2.122 2.122 2.2045 8.61781 24.574 3.3944 -1.9597 1.9598 17.472 4.20363 25.9879 12.2666 -0.2317 2.8221 -52.6435 -4.15667 6.15917 3.892 0 1.77636e-015 -94.4353 -6.33243 5.86113 3.4152 -1.42109e-014 0 -58.8567 -2.83831 5.02915 12.147 0.0099 -2.2166 -48.7455 -3.74139 6.02701 3.6012 2.22045e-015 8.88178e-016 -93.4286 -6.22963 5.86823 3.3073 0 0 -65.0996 -3.40396 5.33064 10.9082 -0.2264 -4.7258 -55.5609 -4.47274 6.23941 4.1367 -7.10543e-015 0 -78.9799 -4.75603 5.77002 2.5948 1.42109e-014 0 -64.4716 -3.34562 5.30312 -6.1057 9.1105 0.7056 8.1783 7.16649 17.5381 -12.655 -0.266 -2.6009 58.7745 -5.88239 20.2147 -27.4047 3.55271e-015 1.42109e-014 -1.39286e-005 -5.59006e-006 29.4772 -27.6145 0 3.55271e-015 2.48831 0.362489 9.9408 -12.7755 0 -3.55271e-015 40.1799 -2.54111 -4.78908 -3.614 0 0 73.9623 -3.38001 -4.48751 -3.4598 0 0 77.3996 -3.65143 -4.55692 -3.7888 -2.167 3.0031 -4.77961 -7.19385 -4.49763 -3.6754 -2.122 2.122 -2.78923 9.41523 -27.6568 -3.3944 -1.9597 1.9598 -16.4739 1.59056 -18.8181 -12.2666 -0.2317 2.8221 28.7109 -0.60267 -2.1388 -3.892 1.77636e-015 0 74.712 -3.43885 -4.50405 -3.4152 7.10543e-015 -3.55271e-015 67.3052 -2.86826 -4.30735 -12.147 0.0099 -2.2166 48.5511 -3.25899 -7.08994 -3.6012 0 1.77636e-015 73.2419 -3.32367 -4.4709 -3.3073 7.10543e-015 -1.77636e-015 76.6369 -3.59088 -4.54294 -10.9082 -0.2264 -4.7258 55.5693 -5.59192 -6.65907 -4.1367 7.10543e-015 -3.55271e-015 72.4387 -3.26111 -4.45156 -2.5948 0 -1.77636e-015 75.8775 -3.53074 -4.52819 -9.1245 -6.6564 -0.0554 -1.54077 -34.1794 -4.88845 -0.2447 -40.5954 -0.5145 -1.31596 43.9986 -9.5854 0.2447 -42.0479 -2.0602 5.59568 -17.4567 1.09437 -0.3734 -10.4922 12.6407 -0.00337505 4.43336 0.000414106 9.1245 -6.6564 -0.0554 18.8576 -39.483 23.1166 0.2447 -40.5954 -0.517 -3.31889 58.9982 14.2711 -0.2447 -42.048 -2.0576 -3.56885 -0.468179 4.14477 0.3734 -10.4922 12.6407 -1.23596e-005 -42.0894 -2.17746e-005 
8.41179 93.0018 0.228274 -1.92729 7.11219 -2.49132 0 9.9235 -1.2273 4.80315 15.1987 2.88752 -0.0001 11.6454 -1.4223 -0.217228 10.5056 1.97403 0.0001 13.3602 -1.6265 -0.301015 10.5405 1.7324 0 15.0325 0.7929 -1.45961 1.3269 -0.696409 0 10.3218 3.1424 6.46841 -19.5271 -3.80296 0.0002 18.4747 6.6364 -1.19271e-015 -6.36111e-015 1.59028e-015 2.9479 7.6817 9.1207 -1.19271e-015 -6.36111e-015 1.59028e-015 -2.9445 7.6817 9.1205 -1.19271e-015 -6.36111e-015 1.59028e-015 6.1058 9.1104 0.7056 -18.0915 4.81257 -8.59288 12.655 -0.2659 -2.6009 -57.9477 -10.7671 -19.1806 27.4047 0 -7.10543e-015 -1.77839e-006 -4.12749e-006 -33.4746 27.6145 7.10543e-015 -1.77636e-015 -1.16529 0.321572 3.56308 12.7755 -7.10543e-015 0 -40.6681 -2.91438 5.66503 3.614 -1.77636e-015 0 -94.7425 -6.36377 5.8586 3.4598 0 -3.55271e-015 -49.709 -2.07645 4.48087 3.7888 -2.167 3.0031 4.62115 -6.47489 -5.6252 3.6754 -2.122 2.122 2.2045 8.61781 24.574 3.3944 -1.9597 1.9598 17.472 4.20363 25.9879 12.2666 -0.2317 2.8221 -52.7171 -4.16459 6.16139 3.892 -3.55271e-015 1.77636e-015 -94.6193 -6.35119 5.85963 3.4152 0 -1.77636e-015 -58.9733 -2.84856 5.03534 12.147 0.0099 -2.2166 -48.817 -3.74893 6.02968 3.6012 -7.10543e-015 8.88178e-016 -93.6072 -6.24789 5.8671 3.3073 0 0 -65.2127 -3.41451 5.33553 10.9082 -0.2264 -4.7258 -55.6315 -4.48042 6.24115 4.1367 1.77636e-015 2.66454e-015 -79.1556 -4.77372 5.77345 2.5948 0 -1.77636e-015 -64.5831 -3.35596 5.30806 -6.1057 9.1105 0.7056 8.12138 7.23157 17.6802 -12.655 -0.266 -2.6009 58.6348 -5.84531 20.1291 -27.4047 0 0 2.8901e-005 1.71527e-006 29.4585 -27.6145 0 0 2.28331 -0.0913314 9.91499 -12.7755 0 3.55271e-015 40.218 -2.5443 -4.79051 -3.614 -3.55271e-015 3.55271e-015 74.1034 -3.39107 -4.49069 -3.4598 0 0 77.5386 -3.6625 -4.55938 -3.7888 -2.167 3.0031 -4.77961 -7.19385 -4.49763 -3.6754 -2.122 2.122 -2.78923 9.41523 -27.6568 -3.3944 -1.9597 1.9598 -16.4739 1.59056 -18.8181 -12.2666 -0.2317 2.8221 28.7496 -0.604703 -2.14117 -3.892 0 0 74.8551 -3.45011 -4.50711 -3.4152 -7.10543e-015 0 67.4462 -2.87887 -4.31178 -12.147 0.0099 -2.2166 48.5887 -3.26229 -7.09079 -3.6012 -7.10543e-015 0 73.381 -3.33453 -4.47416 -3.3073 -7.10543e-015 0 76.7739 -3.60173 -4.5455 -10.9082 -0.2264 -4.7258 55.6062 -5.59577 -6.65907 -4.1367 -7.10543e-015 1.77636e-015 72.5757 -3.27175 -4.45492 -2.5948 0 0 76.0124 -3.5414 -4.53087 -9.1245 -6.6564 -0.0554 -1.49253 -33.9727 -4.87472 -0.2447 -40.5954 -0.5145 -1.30652 43.5426 -9.51537 0.2447 -42.0479 -2.0602 5.5377 -17.2042 1.07247 -0.3734 -10.4922 12.6407 -0.0033936 4.43303 0.000426393 9.1245 -6.6564 -0.0554 18.6598 -39.1621 23.0224 0.2447 -40.5954 -0.517 -3.27658 58.5208 14.1595 -0.2447 -42.048 -2.0576 -3.40104 -0.940722 4.22609 0.3734 -10.4922 12.6407 -1.00205e-006 -41.2144 2.17781e-007 
8.44767 93.1368 0.220904 -1.97254 7.07729 -2.6119 -8.88178e-016 9.9235 -1.2273 4.90165 15.2682 2.84271 -0.0001 11.6454 -1.4223 -0.213023 10.4946 1.98999 0.0001 13.3602 -1.6265 -0.29513 10.5308 1.73857 3.55271e-015 15.0325 0.7929 -1.44411 1.39769 -0.667309 1.77636e-015 10.3218 3.1424 6.47392 -18.9308 -3.66517 0.0002 18.4747 6.6364 0 0 -0 2.9479 7.6817 9.1207 0 0 -0 -2.9445 7.6817 9.1205 0 0 -0 6.1058 9.1104 0.7056 -18.1777 4.8237 -8.65057 12.655 -0.2659 -2.6009 -58.0947 -11.1145 -19.4412 27.4047 -7.10543e-015 0 -1.76469e-005 4.12265e-006 -33.1132 27.6145 0 0 -1.43168 0.875903 3.35176 12.7755 7.10543e-015 0 -40.7312 -2.92063 5.66831 3.614 0 0 -94.9003 -6.37985 5.85723 3.4598 0 0 -49.8089 -2.08429 4.4875 3.7888 -2.167 3.0031 4.62115 -6.47489 -5.6252 3.6754 -2.122 2.122 2.2045 8.61781 24.574 3.3944 -1.9597 1.9598 17.472 4.20363 25.9879 12.2666 -0.2317 2.8221 -52.7812 -4.17149 6.16331 3.892 -1.77636e-015 0 -94.7793 -6.36752 5.85829 3.4152 0 0 -59.0747 -2.85748 5.04071 12.147 0.0099 -2.2166 -48.8793 -3.75549 6.032 3.6012 -1.77636e-015 -8.88178e-016 -93.7627 -6.26377 5.86607 3.3073 1.42109e-014 1.77636e-015 -65.3112 -3.4237 5.33977 10.9082 -0.2264 -4.7258 -55.6928 -4.48711 6.24266 4.1367 5.32907e-015 0 -79.3084 -4.78912 5.77639 2.5948 1.42109e-014 1.77636e-015 -64.6801 -3.36496 5.31233 -6.1057 9.1105 0.7056 8.0563 7.28268 17.8532 -12.655 -0.266 -2.6009 58.5257 -5.73425 20.0037 -27.4047 3.55271e-015 0 1.12884e-005 4.10682e-006 29.4399 -27.6145 0 0 2.09174 -0.843375 9.91329 -12.7755 -3.55271e-015 0 40.2511 -2.54707 -4.79174 -3.614 -3.55271e-015 3.55271e-015 74.2261 -3.40069 -4.49341 -3.4598 0 0 77.6596 -3.67213 -4.56151 -3.7888 -2.167 3.0031 -4.77961 -7.19385 -4.49763 -3.6754 -2.122 2.122 -2.78923 9.41523 -27.6568 -3.3944 -1.9597 1.9598 -16.4739 1.59056 -18.8181 -12.2666 -0.2317 2.8221 28.7832 -0.606474 -2.14323 -3.892 0 -3.55271e-015 74.9796 -3.45991 -4.50975 -3.4152 0 0 67.5689 -2.88811 -4.31562 -12.147 0.0099 -2.2166 48.6213 -3.26518 -7.09152 -3.6012 0 1.77636e-015 73.5019 -3.34398 -4.47698 -3.3073 -7.10543e-015 3.55271e-015 76.8931 -3.61119 -4.54771 -10.9082 -0.2264 -4.7258 55.6384 -5.59912 -6.65906 -4.1367 -7.10543e-015 0 72.6948 -3.28103 -4.45781 -2.5948 7.10543e-015 -1.77636e-015 76.1298 -3.5507 -4.53318 -9.1245 -6.6564 -0.0554 -1.41431 -33.6795 -4.85065 -0.2447 -40.5954 -0.5145 -1.296 43.0148 -9.41072 0.2447 -42.0479 -2.0602 5.45959 -16.9428 1.04733 -0.3734 -10.4922 12.6407 -0.00338789 4.43272 0.000416071 9.1245 -6.6564 -0.0554 18.468 -38.7508 22.9203 0.2447 -40.5954 -0.517 -3.23104 57.9925 14.0462 -0.2447 -42.048 -2.0576 -3.25906 -1.41544 4.32366 0.3734 -10.4922 12.6407 8.2246e-007 -40.3324 -7.78042e-006 
